/* XPM */
static char * goose_xpm[] = {
"64 58 366 2",
"  	c None",
". 	c #C1C1C1",
"+ 	c #B9B9B9",
"@ 	c #B2B2B2",
"# 	c #B4B4B4",
"$ 	c #C0C0C0",
"% 	c #BDBDBD",
"& 	c #C5C5C5",
"* 	c #DDDDDD",
"= 	c #E4E4E4",
"- 	c #E6E6E6",
"; 	c #DFDFDF",
"> 	c #CECECE",
", 	c #B8B8B8",
"' 	c #BEBEBE",
") 	c #C8C8C8",
"! 	c #F0F0F0",
"~ 	c #FBFBFB",
"{ 	c #FDFDFD",
"] 	c #FEFEFE",
"^ 	c #FFFFFF",
"/ 	c #F6F6F6",
"( 	c #D5D5D5",
"_ 	c #B5B5B5",
": 	c #B1B1B1",
"< 	c #D6D6D6",
"[ 	c #F3F3F3",
"} 	c #6F6F6F",
"| 	c #121212",
"1 	c #4A4A4A",
"2 	c #D0D0D0",
"3 	c #BBBBBB",
"4 	c #020202",
"5 	c #010101",
"6 	c #4F4F4F",
"7 	c #C7C7C7",
"8 	c #F8F8F8",
"9 	c #030303",
"0 	c #010102",
"a 	c #515050",
"b 	c #B3B3B3",
"c 	c #C9C9C8",
"d 	c #BCBCBC",
"e 	c #DBDBDB",
"f 	c #EBEBEB",
"g 	c #5C5D5C",
"h 	c #050305",
"i 	c #262625",
"j 	c #C5C3C0",
"k 	c #EEECE7",
"l 	c #B3B2AB",
"m 	c #CECFC9",
"n 	c #A7A7A7",
"o 	c #7F7F7F",
"p 	c #B7B7B7",
"q 	c #F0F0EF",
"r 	c #D4D7C3",
"s 	c #E3E2BE",
"t 	c #FBF1D0",
"u 	c #FAF1D2",
"v 	c #E3DDC7",
"w 	c #C2B4B6",
"x 	c #BDBBBD",
"y 	c #A3A3A3",
"z 	c #070608",
"A 	c #C0BBA7",
"B 	c #F8D589",
"C 	c #F3B733",
"D 	c #FEA917",
"E 	c #FCAA17",
"F 	c #F8B536",
"G 	c #F9B961",
"H 	c #E3AC5F",
"I 	c #EBB38B",
"J 	c #B6B6B6",
"K 	c #FCFCFC",
"L 	c #6A6A6A",
"M 	c #000001",
"N 	c #010104",
"O 	c #8C6B0B",
"P 	c #F7AB03",
"Q 	c #F9AB04",
"R 	c #FCA70A",
"S 	c #FCA807",
"T 	c #FCA902",
"U 	c #FFA801",
"V 	c #FFA702",
"W 	c #FFA302",
"X 	c #F4B00A",
"Y 	c #F6B73D",
"Z 	c #F7C973",
"` 	c #C9C9C9",
" .	c #AAAAAA",
"..	c #050506",
"+.	c #010401",
"@.	c #160A07",
"#.	c #C68017",
"$.	c #FFA303",
"%.	c #FAA801",
"&.	c #FDA901",
"*.	c #FCA900",
"=.	c #FCAA00",
"-.	c #FCAB00",
";.	c #FBA902",
">.	c #FCA802",
",.	c #FEA706",
"'.	c #FEA60B",
").	c #FAB84C",
"!.	c #FFDDB2",
"~.	c #C3C3C3",
"{.	c #CBCBCB",
"].	c #CCCCCC",
"^.	c #F1F1F1",
"/.	c #F9F9F9",
"(.	c #9D9384",
"_.	c #BA9024",
":.	c #F5A803",
"<.	c #FFA500",
"[.	c #FEA600",
"}.	c #FFA700",
"|.	c #FEA800",
"1.	c #FDAB00",
"2.	c #FBAB00",
"3.	c #FEA802",
"4.	c #FFA605",
"5.	c #FDA902",
"6.	c #FAC36C",
"7.	c #C4C4C4",
"8.	c #E9E9E9",
"9.	c #F7F7F7",
"0.	c #EAEAEA",
"a.	c #D9D9D9",
"b.	c #C6C6C6",
"c.	c #BABABA",
"d.	c #E1E1E1",
"e.	c #FEF7E3",
"f.	c #F9B123",
"g.	c #FFA901",
"h.	c #FFA800",
"i.	c #FDA801",
"j.	c #FDAA00",
"k.	c #FEA902",
"l.	c #FFA803",
"m.	c #FAAE01",
"n.	c #FCAB01",
"o.	c #FFAC19",
"p.	c #FFE3BA",
"q.	c #EDEDED",
"r.	c #FAFAFA",
"s.	c #EEEEEE",
"t.	c #F9FAEB",
"u.	c #F6B539",
"v.	c #FEAA00",
"w.	c #FEA801",
"x.	c #FEA702",
"y.	c #FFE7B9",
"z.	c #F2F2F2",
"A.	c #F4F4F4",
"B.	c #FEFDF4",
"C.	c #FEC37E",
"D.	c #FDAC05",
"E.	c #FDA900",
"F.	c #FFA701",
"G.	c #FEA904",
"H.	c #FFE8BC",
"I.	c #D1D1D1",
"J.	c #E7E7E7",
"K.	c #D4D4D4",
"L.	c #FFFDF6",
"M.	c #FCEAC9",
"N.	c #F9B028",
"O.	c #FDA604",
"P.	c #FDA704",
"Q.	c #FEA900",
"R.	c #FEA809",
"S.	c #FCB436",
"T.	c #E3E3E3",
"U.	c #FFFFFE",
"V.	c #FFFDFB",
"W.	c #FFFDF5",
"X.	c #FCE4BA",
"Y.	c #F5B937",
"Z.	c #FDA50F",
"`.	c #FCA901",
" +	c #FEA803",
".+	c #FCA916",
"++	c #FFCF92",
"@+	c #F5F5F5",
"#+	c #FFFFFD",
"$+	c #FEFFFF",
"%+	c #FEFFFE",
"&+	c #FEF7DC",
"*+	c #FADBAC",
"=+	c #FAC88B",
"-+	c #F5BA57",
";+	c #F7AA22",
">+	c #F8AA09",
",+	c #FAA906",
"'+	c #FBAB03",
")+	c #FBAC00",
"!+	c #FBA905",
"~+	c #F7AB20",
"{+	c #F6C682",
"]+	c #D7D7D7",
"^+	c #F7FDFA",
"/+	c #E1E9E6",
"(+	c #C9BDBB",
"_+	c #BEB3A4",
":+	c #BFB0A1",
"<+	c #D5C89F",
"[+	c #F8D89A",
"}+	c #F6D280",
"|+	c #F3CF78",
"1+	c #F5CD7D",
"2+	c #FDDEA7",
"3+	c #BBC1BD",
"4+	c #B2B8B6",
"5+	c #CCC9CC",
"6+	c #CDCDCD",
"7+	c #E0E0E0",
"8+	c #D8D8D8",
"9+	c #EFEFEF",
"0+	c #DEDEDE",
"a+	c #D2D2D2",
"b+	c #D3D3D3",
"c+	c #BFBFBF",
"d+	c #E2E2E2",
"e+	c #CFCFCF",
"f+	c #AFAFAF",
"g+	c #ABABAB",
"h+	c #AEAEAE",
"i+	c #ADADAD",
"j+	c #ADACAE",
"k+	c #B3B3B5",
"l+	c #C7C6C7",
"m+	c #D9D8D9",
"n+	c #EBEBEC",
"o+	c #F7F8F8",
"p+	c #FEFEFC",
"q+	c #FFFFFB",
"r+	c #FFFFFC",
"s+	c #D2C1B1",
"t+	c #C2AF82",
"u+	c #B4AE88",
"v+	c #B2A8A1",
"w+	c #ACAAA6",
"x+	c #ACAFAC",
"y+	c #C1C1BD",
"z+	c #D9D7D2",
"A+	c #E9E8E4",
"B+	c #F6F6F4",
"C+	c #FEFEFD",
"D+	c #E3C088",
"E+	c #ECA42E",
"F+	c #E0A931",
"G+	c #DDA644",
"H+	c #D3A954",
"I+	c #CDA56F",
"J+	c #C2A690",
"K+	c #B6AB9D",
"L+	c #B2ACA0",
"M+	c #AFAEAA",
"N+	c #BFBEC1",
"O+	c #D1D1D2",
"P+	c #CACACA",
"Q+	c #E5B55F",
"R+	c #EAA42B",
"S+	c #ECA425",
"T+	c #E9A625",
"U+	c #E7A526",
"V+	c #E5A52B",
"W+	c #E4A534",
"X+	c #E4A738",
"Y+	c #DDB36D",
"Z+	c #BFC0B9",
"`+	c #B1AFB6",
" @	c #AEADAF",
".@	c #E8B35B",
"+@	c #E9A529",
"@@	c #EBA525",
"#@	c #E9A525",
"$@	c #E8A627",
"%@	c #E8A629",
"&@	c #E7A62D",
"*@	c #E8A62F",
"=@	c #E2B56F",
"-@	c #E7C786",
";@	c #F2BB65",
">@	c #EEB85E",
",@	c #E7AC37",
"'@	c #E9A52A",
")@	c #EAA526",
"!@	c #E8A626",
"~@	c #E9A626",
"{@	c #E3AA26",
"]@	c #E9A825",
"^@	c #ECC47F",
"/@	c #EACEA2",
"(@	c #E3B155",
"_@	c #F2A72C",
":@	c #EBA92E",
"<@	c #EBA92D",
"[@	c #E8A82A",
"}@	c #E9A62A",
"|@	c #E9A629",
"1@	c #E9A727",
"2@	c #EAA627",
"3@	c #E4A831",
"4@	c #E4AE4D",
"5@	c #EED9AE",
"6@	c #E9B364",
"7@	c #EEA635",
"8@	c #EDA82E",
"9@	c #ECA92A",
"0@	c #EBA92A",
"a@	c #E9A82A",
"b@	c #E6A92D",
"c@	c #E6A930",
"d@	c #E3AA2E",
"e@	c #E1AA36",
"f@	c #E2B75A",
"g@	c #EDD7A4",
"h@	c #E6CE9D",
"i@	c #E7AA31",
"j@	c #EAA82E",
"k@	c #EBA92B",
"l@	c #EBAA28",
"m@	c #EBAA26",
"n@	c #EBAA29",
"o@	c #EAA92A",
"p@	c #E5AB31",
"q@	c #E6BC81",
"r@	c #E4CE8D",
"s@	c #E9C792",
"t@	c #DFD07C",
"u@	c #E6AB2A",
"v@	c #EBAA2A",
"w@	c #E5AC2D",
"x@	c #E3D19A",
"y@	c #E1CF97",
"z@	c #E5A932",
"A@	c #EAA72E",
"B@	c #EBAA27",
"C@	c #EBA92C",
"D@	c #E4A930",
"E@	c #E5D198",
"F@	c #EAB25C",
"G@	c #EDA52F",
"H@	c #ECA82A",
"I@	c #EAAA2A",
"J@	c #E6AB30",
"K@	c #E7AB30",
"L@	c #E7B45D",
"M@	c #F0C89C",
"N@	c #E6B149",
"O@	c #E9AB22",
"P@	c #EBA82F",
"Q@	c #E9A935",
"R@	c #E3B24B",
"S@	c #EBD09D",
"T@	c #F0D9AA",
"U@	c #EEC280",
"V@	c #E9B25C",
"W@	c #EAB25E",
"X@	c #EEC186",
"Y@	c #EDDEB0",
"                                                                                  . + @ # + $                                   ",
"                                                                              % @ & * = - ; > , '                               ",
"                                                                            , ) ! ~ { ] ^ ^ ^ / ( @ _                           ",
"                                                                          : < ~ ] ] ] ] ^ ^ ^ ^ [ } | 1                         ",
"                                                                        + 2 ] ^ ^ ^ ^ ^ ^ ^ ^ ^ 3 4 5 5 6 7                     ",
"                                                                        , 8 ^ ^ ^ ^ ^ ^ ^ ^ ^ ^ _ 9 0 4 a b c                   ",
"                                                                      d e ] ^ ^ ^ ^ ^ ^ ^ ^ ^ ^ f g h i j k l m                 ",
"                                                                      _ ! ^ ^ ^ ^ ^ ^ ^ ^ / n o p q r s t u v w x               ",
"                                                                      _ ~ ^ ^ ^ ^ ^ ^ ^ ^ y 5 0 z A B C D E F G H I             ",
"                                                                      J K ^ ^ ^ ^ ^ ^ ^ { L 0 M N O P Q R S T U V W X Y Z       ",
"                        3 d $ `                                       b K ^ ^ ^ ^ ^ ^ ^ ^  ...+.@.#.$.%.T &.*.=.-.;.>.,.'.).!.  ",
"                d p J ~.{.].` $ : _ 3 .                               @ ^.^ ^ ^ ^ ^ ^ ^ ^ /.3 (._.:.<.[.}.}.V |.1.2.3.4.5.Q 6.  ",
"            7.: ` 8.9.{ ^ ] ] { 8 0.a.b.p p c.&                       3 d.^ ^ ^ ^ ^ ^ ^ ^ ^ { e.f.g.}.}.}.h.V i.j.-.k.l.m.n.o.p.",
"          , . q.] ^ ] ] ^ ^ ^ ^ ] { K { r.s.* ` , b ' 7.              J f ] ^ ^ ^ ^ ^ ^ ^ ^ ^ t.u.v.h.h.h.|.w.&.&.*.i.x.U }.l.y.",
"        J 2 r.] ^ ^ ^ ^ ^ ^ ^ ^ ^ ] ] ] ^ ^ ] { K z.; {., b , '       # A.^ ^ ^ ^ ^ ^ ^ ^ ^ ^ B.C.D.V h.i.&.&.&.E.E.w.F.h.l.G.H.",
"      + I.{ ^ ^ ^ ^ ^ ^ ^ ^ ^ ^ ^ ^ ^ ^ ^ ^ ^ ] ^ ^ ] { K A.J.K.% # b b { ^ ^ ^ ^ ^ ^ ^ ^ ^ ^ L.M.N.O.P.&.&.E.E.E.Q.|.U v.R.S.  ",
"    % ` { ^ ^ ^ ^ ^ ^ ^ ^ ^ ^ ^ ^ ^ ^ ^ ^ ^ ^ ^ ^ ^ ^ ] { ] ^ ] ] / 0.T.{ ^ ^ ^ ^ ^ ^ ^ ^ ^ U.V.W.X.Y.Z.`.&.E.E.E.Q.h.V  +.+++  ",
"    _ @+^ ^ ^ ^ ^ ^ ^ ^ ^ ^ ^ ^ ^ ^ ^ ^ ^ ^ ^ ^ ^ ^ ^ ^ ^ ^ ^ ^ ^ ^ ^ ^ ^ ^ ^ ^ ^ ^ ^ ^ ^ ^ ^ #+$+%+&+*+=+-+;+>+,+'+)+!+~+{+    ",
"  c.]+] ^ ^ ^ ^ ^ ^ ^ ^ ^ ^ ^ ^ ^ ^ ^ ^ ^ ^ ^ ^ ^ ^ ^ ^ ^ ^ ^ ^ ^ ^ ^ ^ ^ ^ ^ ^ ^ ^ ^ ^ ^ ^ ^ ^ ^ ^ ^+/+(+_+:+<+[+}+|+1+2+      ",
"  : A.^ ^ ^ ^ ^ ^ ^ ^ ^ ^ ^ ^ ^ ^ ^ ^ ^ ^ ^ ^ ^ ^ ^ ^ ^ ^ ^ ^ ^ ^ ^ ^ ^ ^ ^ ^ ^ ^ ^ ^ ^ ^ ^ ^ ^ ^ ! 3+4+5+                      ",
"  b.{ ^ ^ ^ ^ ^ ^ ^ ^ ^ ^ ^ ^ ^ ^ ^ ^ ^ ^ ^ ^ ^ ^ ^ ^ ^ ^ ^ ^ ^ ^ ^ ^ ^ ^ ^ ^ ^ ^ ^ ^ ^ ^ ^ ^ ^ ^ * %                           ",
"% < ^ ^ ^ ^ ^ ^ ^ ^ ^ ^ ^ ^ ^ ^ ^ ^ ^ ^ ^ ^ ^ ^ ^ ^ ^ ^ ^ ^ ^ ^ ^ ^ ^ ^ ^ ^ ^ ^ ^ ^ ^ ^ ^ ^ ^ ^ ] I.~.                          ",
"d ; ] ^ ^ ^ ^ ^ ^ ^ ^ ^ ^ ^ ^ ^ ^ ^ ^ ^ ^ ^ ^ ^ ^ ^ ^ ^ ^ ^ ^ ^ ^ ^ ^ ^ ^ ^ ^ ^ ^ ^ ^ ^ ^ ^ ^ ^ ] ~.6+                          ",
"c.T.{ ] ^ ^ ^ ^ ^ ^ ^ ^ ^ ^ ^ ^ ^ ^ ^ ^ ^ ^ ^ ^ ^ ^ ^ ^ ^ ^ ^ ^ ^ ^ ^ ^ ^ ^ ^ ^ ^ ^ ^ ^ ^ ^ ^ ^ K ,                             ",
"c.7+{ ] ^ ^ ^ ^ ^ ^ ^ ^ ^ ^ ^ ^ ^ ^ ^ ^ ^ ^ ^ ^ ^ ^ ^ ^ ^ ^ ^ ^ ^ ^ ^ ^ ^ ^ ^ ^ ^ ^ ^ ^ ^ ^ ^ ^ 8 b                             ",
"p 8+{ ] ^ ^ ^ ^ ^ ^ ^ ^ ^ ^ ^ ^ ^ ^ ^ ^ ^ ^ ^ ^ ^ ^ ^ ^ ^ ^ ^ ^ ^ ^ ^ ^ ^ ^ ^ ^ ^ ^ ^ ^ ^ ^ ^ ^ 9+p                             ",
"d 7 ] ^ ^ ^ ^ ^ ^ ^ ^ ^ ^ ^ ^ ^ ^ ^ ^ ^ ^ ^ ^ ^ ^ ^ ^ ^ ^ ^ ^ ^ ^ ^ ^ ^ ^ ^ ^ ^ ^ ^ ^ ^ ^ ^ ^ ^ = ,                             ",
"  b / ^ ^ ^ ^ ^ ^ ^ ^ ^ ^ ^ ^ ^ ^ ^ ^ ^ ^ ^ ^ ^ ^ ^ ^ ^ ^ ^ ^ ^ ^ ^ ^ ^ ^ ^ ^ ^ ^ ^ ^ ^ ^ ^ ^ ^ 8+d                             ",
"  + 0+] ^ ^ ^ ^ ^ ^ ^ ^ ^ ^ ^ ^ ^ ^ ^ ^ ^ ^ ^ ^ ^ ^ ^ ^ ^ ^ ^ ^ ^ ^ ^ ^ ^ ^ ^ ^ ^ ^ ^ ^ ^ ^ ^ ^ < ,                             ",
"    3 /.^ ^ ^ ^ ^ ^ ^ ^ ^ ^ ^ ^ ^ ^ ^ ^ ^ ^ ^ ^ ^ ^ ^ ^ ^ ^ ^ ^ ^ ^ ^ ^ ^ ^ ^ ^ ^ ^ ^ ^ ^ ^ ^ ^ < ,                             ",
"    d a+K ^ ^ ^ ^ ^ ^ ^ ^ ^ ^ ^ ^ ^ ^ ^ ^ ^ ^ ^ ^ ^ ^ ^ ^ ^ ^ ^ ^ ^ ^ ^ ^ ^ ^ ^ ^ ^ ^ ^ ^ ^ ^ ^ b+c+                            ",
"      _ d.] ^ ^ ^ ^ ^ ^ ^ ^ ^ ^ ^ ^ ^ ^ ^ ^ ^ ^ ^ ^ ^ ^ ^ ^ ^ ^ ^ ^ ^ ^ ^ ^ ^ ^ ^ ^ ^ ^ ^ ^ ^ ] b.                              ",
"        b d+{ ^ ^ ^ ^ ^ ^ ^ ^ ^ ^ ^ ^ ^ ^ ^ ^ ^ ^ ^ ^ ^ ^ ^ ^ ^ ^ ^ ^ ^ ^ ^ ^ ^ ^ ^ ^ ^ ^ ^ ^ 8 J                               ",
"          @ e+9.^ ^ ^ ^ ^ ^ ^ ^ ^ ^ ^ ^ ^ ^ ^ ^ ^ ^ ^ ^ ^ ^ ^ ^ ^ ^ ^ ^ ^ ^ ^ ^ ^ ^ ^ ^ ^ ^ ^ d.3                               ",
"            _ _ 0+@+] ] ] ] ^ ^ ^ ^ ^ ^ ^ ^ ^ ^ ^ ^ ^ ^ ^ ^ ^ ^ ^ ^ ^ ^ ^ ^ ^ ^ ^ ^ ^ ^ ^ ^ K ' )                               ",
"                , f+c+b+= [ ~ ] ] ^ ^ ^ ^ ^ ^ ^ ^ ^ ^ ^ ^ ^ ^ ^ ^ ^ ^ ^ ^ ^ ^ ^ ^ ^ ^ ^ ^ ^ 7+3                                 ",
"                      J # : 3 > T.[ ~ ] ^ ^ ^ ^ ^ ^ ^ ^ ^ ^ ^ ^ ^ ^ ^ ^ ^ ^ ^ ^ ^ ^ ^ ^ ^ 9+,                                   ",
"                            , f+ .g+, ` ; ! ~ ] ^ ^ ^ ^ #+U.^ ^ ^ ^ ^ ^ ^ ^ ^ ^ ^ ^ ^ ] 9+_                                     ",
"                                  % # h+i+j+k+l+m+n+o+p+q+r+^ ^ ^ ^ ^ ^ ^ ^ ^ ^ ^ ^ ] 0._ ,                                     ",
"                                          s+t+u+v+w+x+y+z+A+B+C+^ ] ] ^ ^ ^ ^ ^ ] @+e+#                                         ",
"                                          D+E+F+G+H+I+J+K+L+M+N+O+= z.8 ~ 8 z.d.P+# p                                           ",
"                                          Q+R+S+T+U+V+W+X+Y+Z+`+ @, b : # b # @ 3                                               ",
"                                          .@+@@@#@$@%@&@*@=@                                                                    ",
"                                    -@;@>@,@'@)@!@~@$@{@]@^@                                                                    ",
"                                /@(@_@:@<@[@}@|@1@2@2@3@4@5@                                                                    ",
"                                6@7@8@9@0@0@a@b@c@d@e@f@g@                                                                      ",
"                              h@i@j@k@l@m@n@o@p@q@r@s@                                                                          ",
"                              t@u@j@k@m@m@v@k@w@x@                                                                              ",
"                              y@z@A@k@B@B@v@C@D@E@                                                                              ",
"                                F@G@H@0@I@J@K@L@                                                                                ",
"                                M@N@O@:@P@Q@R@S@                                                                                ",
"                                  T@U@V@W@X@Y@                                                                                  ",
"                                                                                                                                ",
"                                                                                                                                ",
"                                                                                                                                ",
"                                                                                                                                ",
"                                                                                                                                ",
"                                                                                                                                "};
